<?xml version="1.0" encoding="utf-8"?>
<svg xmlns="http://www.w3.org/2000/svg" viewBox="0 0 42.5 44.575">
  <defs>
    <style>
      .cls-1 {
        fill: #1ca3c2;
      }
    </style>
  </defs>
  <g id="Group_6" data-name="Group 6" transform="translate(0 0.175)">
    <path id="Path_197" data-name="Path 197" class="cls-1" d="M42.5,16.7a.713.713,0,0,0-.3-.6.878.878,0,0,0-.7-.1l-14,5a.752.752,0,0,0-.5.7V37.4a4.018,4.018,0,0,0-2.9-.4c-2.3.5-4.1,2.4-4.1,4.4a2.656,2.656,0,0,0,1.1,2.2,3.566,3.566,0,0,0,2.3.8,3.4,3.4,0,0,0,1-.1c2.3-.5,4.1-2.4,4.1-4.4v-.3h0V27.2L41,22.8v9.7a4.018,4.018,0,0,0-2.9-.4c-2.3.5-4.1,2.4-4.1,4.4a2.656,2.656,0,0,0,1.1,2.2,3.566,3.566,0,0,0,2.3.8,3.4,3.4,0,0,0,1-.1c2.3-.5,4.1-2.4,4.1-4.4v-.3h0v-18ZM24.1,42.9a2.464,2.464,0,0,1-2.1-.3,1.433,1.433,0,0,1-.5-1.1,3.482,3.482,0,0,1,2.9-2.9,1.7,1.7,0,0,1,.7-.1,2.3,2.3,0,0,1,1.4.4A1.433,1.433,0,0,1,27,40C27,41.2,25.7,42.5,24.1,42.9Zm4.4-17.3V22.2L41,17.8v3.4Zm9.6,12.3a2.464,2.464,0,0,1-2.1-.3,1.433,1.433,0,0,1-.5-1.1,3.482,3.482,0,0,1,2.9-2.9,1.7,1.7,0,0,1,.7-.1,2.3,2.3,0,0,1,1.4.4A1.433,1.433,0,0,1,41,35C41,36.2,39.7,37.5,38.1,37.9Z"/>
    <path id="Path_198" data-name="Path 198" class="cls-1" d="M7.1,38.3l-.8.8a2.234,2.234,0,0,1-3.2,0l-.8-.8a2.36,2.36,0,0,1-.7-1.6,1.99,1.99,0,0,1,.7-1.6l.8-.8a3.777,3.777,0,0,0,.6-4.5,19.152,19.152,0,0,1,0-18.2,3.777,3.777,0,0,0-.6-4.5l-.7-.8a2.36,2.36,0,0,1-.7-1.6,2.36,2.36,0,0,1,.7-1.6l.8-.8a2.234,2.234,0,0,1,3.2,0l.8.8a3.777,3.777,0,0,0,4.5.6,19.527,19.527,0,0,1,18.2,0,3.777,3.777,0,0,0,4.5-.6l.8-.8a2.234,2.234,0,0,1,3.2,0l.8.8a2.36,2.36,0,0,1,.7,1.6,1.99,1.99,0,0,1-.7,1.6l-.8.8a3.777,3.777,0,0,0-.6,4.5,15.552,15.552,0,0,1,1.4,3.3l1.4-.5a27.491,27.491,0,0,0-1.5-3.6,2.135,2.135,0,0,1,.4-2.7l.8-.8a3.693,3.693,0,0,0,1.1-2.7,4.049,4.049,0,0,0-1.1-2.7l-.8-.8a3.684,3.684,0,0,0-5.3,0l-.8.8a2.432,2.432,0,0,1-2.7.4A20.838,20.838,0,0,0,11,2.3a2.135,2.135,0,0,1-2.7-.4l-.9-.6a3.684,3.684,0,0,0-5.3,0l-.8.8A3.631,3.631,0,0,0,.2,4.7,4.049,4.049,0,0,0,1.3,7.4l.8.8a2.27,2.27,0,0,1,.4,2.7A20.984,20.984,0,0,0,0,20.7a20.984,20.984,0,0,0,2.5,9.8,2.252,2.252,0,0,1-.3,2.7l-.8.8A3.693,3.693,0,0,0,.3,36.7a4.049,4.049,0,0,0,1.1,2.7l.8.8a3.684,3.684,0,0,0,5.3,0l.8-.8A2.432,2.432,0,0,1,11,39a23.143,23.143,0,0,0,6.7,2.3l.2-1.5a16.886,16.886,0,0,1-6.2-2.1A3.76,3.76,0,0,0,7.1,38.3Z"/>
    <path id="Path_199" data-name="Path 199" class="cls-1" d="M34.2,16l1.4-.5a15.75,15.75,0,1,0-14.8,21V35A14.25,14.25,0,1,1,34.2,16Z"/>
    <path id="Path_200" data-name="Path 200" class="cls-1" d="M20.7,14.5h0a6.154,6.154,0,0,1,5.6,3.6l1.4-.6a7.74,7.74,0,0,0-7-4.4h0a7.853,7.853,0,0,0-7.8,7.8,7.875,7.875,0,0,0,7.8,7.8,7.67,7.67,0,0,0,4.4-1.4l-.9-1.2a7.458,7.458,0,0,1-3.4.9,6.338,6.338,0,0,1-6.3-6.3,6.039,6.039,0,0,1,1.8-4.4A6.2,6.2,0,0,1,20.7,14.5Z"/>
  </g>
</svg>
