<?xml version="1.0" encoding="utf-8"?><svg id="Group_8" data-name="Group 8" xmlns="http://www.w3.org/2000/svg" viewBox="0 0 22.5 47.8">
  <defs>
    <style>
      .cls-1 {
        fill: #1ca3c2;
      }
    </style>
  </defs>
  <path id="Path_205" data-name="Path 205" class="cls-1" d="M19,46.3H3.5V35H2V47.8H20.5V35H19Z"/>
  <path id="Path_206" data-name="Path 206" class="cls-1" d="M17.8,7.3H12V0H10.5V7.3H4.8A4.717,4.717,0,0,0,0,12V33.8H22.5V12A4.7,4.7,0,0,0,17.8,7.3Zm3.2,25H1.5V12A3.329,3.329,0,0,1,4.8,8.7h5.8V21.3a3.792,3.792,0,0,0,.8,7.5A3.633,3.633,0,0,0,15,25a3.847,3.847,0,0,0-3-3.7V8.8h5.8a3.329,3.329,0,0,1,3.3,3.3V32.3Zm-9.7-9.5a2.3,2.3,0,1,1,0,4.6A2.414,2.414,0,0,1,9,25,2.242,2.242,0,0,1,11.3,22.8Z"/>
  <rect id="Rectangle_137" data-name="Rectangle 137" class="cls-1" width="1.5" height="4" transform="translate(7 39)"/>
  <rect id="Rectangle_138" data-name="Rectangle 138" class="cls-1" width="1.5" height="4" transform="translate(14 39)"/>
</svg>
