<?xml version="1.0" encoding="utf-8"?><svg id="Group_5" data-name="Group 5" xmlns="http://www.w3.org/2000/svg" viewBox="0 0 49.7 30">
  <defs>
    <style>
      .cls-1 {
        fill: #1ca3c2;
      }
    </style>
  </defs>
  <rect id="Rectangle_134" data-name="Rectangle 134" class="cls-1" width="15" height="1.5" transform="translate(17.3 19.5)"/>
  <path id="Path_194" data-name="Path 194" class="cls-1" d="M47.3,6H42.8c-.5,0-.8.3-1.8,1.1-.2.2-.5.4-.7.6L38.5,3.6a5.162,5.162,0,0,0-5-3.6H16a5.2,5.2,0,0,0-5,3.5L9.2,7.7a4.349,4.349,0,0,1-.7-.6C7.5,6.3,7.2,6,6.8,6H2.3A2.263,2.263,0,0,0,0,8.3v2a2.135,2.135,0,0,0,2.1,2.2l2.4.8V14A5.437,5.437,0,0,0,3,17.9v2.4A5.135,5.135,0,0,0,4.5,24v3.8A2.242,2.242,0,0,0,6.8,30h6a2.308,2.308,0,0,0,2.3-2.2V25.5H34.6v2.3A2.242,2.242,0,0,0,36.9,30h6a2.308,2.308,0,0,0,2.3-2.2V24a5.135,5.135,0,0,0,1.5-3.7V17.9A5.606,5.606,0,0,0,45.2,14v-.7l2.4-.8a2.2,2.2,0,0,0,2.1-2.2v-2A2.562,2.562,0,0,0,47.3,6ZM10.4,8.6l2-4.5A3.785,3.785,0,0,1,16,1.5H33.5a3.843,3.843,0,0,1,3.6,2.6l2,4.4.4-.2c-1.3,1-3,2.1-4.2,2.1h-21c-1.3,0-2.9-1.1-4.2-2.1ZM48,10.3a.789.789,0,0,1-.8.8l-3.8,1.2v2.4l.2.2A4.387,4.387,0,0,1,44.9,18v2.4a3.545,3.545,0,0,1-1.3,2.8l-.2.2v4.5a.713.713,0,0,1-.8.7h-6a.773.773,0,0,1-.8-.7V25.6h5.3V24H8.3v1.5h5.3v2.3a.713.713,0,0,1-.8.7h-6a.773.773,0,0,1-.8-.7V23.3L5.8,23a3.721,3.721,0,0,1-1.3-2.8V17.8a4.387,4.387,0,0,1,1.3-3.1l.2-.1V12.2L2.5,11H2.3a.789.789,0,0,1-.8-.8v-2a.789.789,0,0,1,.8-.8H6.6a7.272,7.272,0,0,0,.9.8C9.1,9.6,11.9,12,14.3,12h21c2.4,0,5.1-2.3,6.8-3.8a4.431,4.431,0,0,1,.9-.7h4.3a.86.86,0,0,1,.8.8v2Z"/>
  <path id="Path_195" data-name="Path 195" class="cls-1" d="M33.8,16.5V18a12.1,12.1,0,0,0,7.4-2.6l-1-1.1A10.334,10.334,0,0,1,33.8,16.5Z"/>
  <path id="Path_196" data-name="Path 196" class="cls-1" d="M8.4,15.4A11.883,11.883,0,0,0,15.8,18V16.5a9.851,9.851,0,0,1-6.4-2.3Z"/>
</svg>
