<?xml version="1.0" encoding="utf-8"?><svg id="Group_4" data-name="Group 4" xmlns="http://www.w3.org/2000/svg" viewBox="0 0 43.6 43.5">
  <defs>
    <style>
      .cls-1 {
        fill: #1ca3c2;
      }
    </style>
  </defs>
  <path id="Path_192" data-name="Path 192" class="cls-1" d="M31.8,33.5a.367.367,0,0,1-.3-.1l-9.7-3.9-9.7,3.9a.8.8,0,0,1-1-1l10-24a.769.769,0,0,1,1.4,0l10,24a.627.627,0,0,1-.2.8A.55.55,0,0,1,31.8,33.5ZM21.8,28a.367.367,0,0,1,.3.1l8.3,3.3L21.8,10.7,13.2,31.4l8.3-3.3A.367.367,0,0,1,21.8,28Z"/>
  <path id="Path_193" data-name="Path 193" class="cls-1" d="M21.8,43.5A21.75,21.75,0,1,1,43.6,21.8,21.766,21.766,0,0,1,21.8,43.5Zm0-42A20.25,20.25,0,1,0,42,21.8,20.315,20.315,0,0,0,21.8,1.5Z"/>
</svg>
