<?xml version="1.0" encoding="utf-8"?><svg id="icons" xmlns="http://www.w3.org/2000/svg" viewBox="0 0 48 36.5"><defs><style>.cls-1{fill:#1ca3c2;}</style></defs><title>Group 9</title><path class="cls-1" d="M556.71,55c-.19-.19-.44,0-.71,0h-3v2h2.59l9,8.75L557,73.21l-9-9.12V57h1V55h-2c-.55,0-1-.05-1,.5v9a1,1,0,0,0,.29.71l10,10a1,1,0,0,0,1.41,0l9-9a.86.86,0,0,0,0-1.29Z" transform="translate(-536 -39)"/><path class="cls-1" d="M570.51,43.81c-3.76-3.5-7.34-4.81-11.57-4.81H553c-3.75,0-8.6,3-11.32,5H539a1.81,1.81,0,0,0-1.41.33A1.46,1.46,0,0,0,537,45.5v3.76l-.89,1.79a1,1,0,0,0-.11.45v2c0,1.65,1.35,3.5,3,3.5h3.11a5.59,5.59,0,0,0,2.39,3.08l1-1.86a3.11,3.11,0,0,1-1.5-2.66,3,3,0,0,1,3-3,3,3,0,0,1,1.5,5.57l1,1.73A5,5,0,0,0,552,55.5a4.8,4.8,0,0,0-5-4.75A4.61,4.61,0,0,0,542.1,55H539c-.55,0-1-.95-1-1.5V51.74l.89-1.79c.07-.14.11,0,.11-.2V46h3a1,1,0,0,0,.59-.19c2-1.45,7-4.81,10.41-4.81h5.94c3.76,0,7,1.21,10.42,4.48.15.14.33.11.53.14,10.93,1.72,12.11,4,12.11,4.89V55h-4.1a4.61,4.61,0,0,0-4.9-4.24,4.9,4.9,0,0,0-4.9,3.89l-8.1-.08v2h8.11a5.23,5.23,0,0,0,4.9,4.23,5.1,5.1,0,0,0,4.9-3.76H583c.55,0,1-.95,1-1.5v-5C584,47.25,579.71,45.29,570.51,43.81ZM573,58.5a3,3,0,1,1,3-3A3,3,0,0,1,573,58.5Z" transform="translate(-536 -39)"/><path class="cls-1" d="M565.46,47.68l2-.92-.74-1.67L564.9,46H546.41l-.71-1-1.41,1.29,1,1.19c.19.19.44.48.71.48h19.09C565.22,48,565.35,47.73,565.46,47.68Z" transform="translate(-536 -39)"/></svg>