<?xml version="1.0" encoding="utf-8"?>
<svg xmlns="http://www.w3.org/2000/svg" viewBox="0 0 43.775 48">
  <defs>
    <style>
      .cls-1{fill:#1ca3c2}
    </style>
  </defs>
  <path class="cls-1" d="M41.95 9.6l-2.8-2.8-2.8-2.8a6.068 6.068 0 0 0-5.3-1.7 11.176 11.176 0 0 0-5.7 3.1L1.15 29.6a5.29 5.29 0 0 0-1.1 4.3 10.461 10.461 0 0 0 3.2 5.9l1.4 1.4 1.4 1.4a10.461 10.461 0 0 0 5.9 3.2c.3 0 .7.1 1 .1a4.307 4.307 0 0 0 3.3-1.2l24.2-24.2c3.8-3.6 4.4-8 1.5-10.9zm-26.7 34.1a3.9 3.9 0 0 1-3.1.7 9.315 9.315 0 0 1-5.1-2.8l-1.4-1.4-1.4-1.4a9.315 9.315 0 0 1-2.8-5.1 3.77 3.77 0 0 1 .7-3.1l24.2-24.2a8.729 8.729 0 0 1 4.8-2.7 4.591 4.591 0 0 1 4 1.3l2.8 2.8 2.8 2.8c2.2 2.2 1.7 5.8-1.4 8.8z"/>
  <path class="cls-1" d="M31.35 14.5l-.5.5.5-.5c-.9-.9-4.2-4.1-6.6-5.1l-.5-.2-.3.4a19.382 19.382 0 0 0-3.6 6.5l-9.9 9.9a13.545 13.545 0 0 0-4.3 2.9l-.4.4.2.4a23.169 23.169 0 0 0 4.4 5.9 23.169 23.169 0 0 0 5.9 4.4l.6.2.3-.5.9-1.2a16.458 16.458 0 0 0 2-3.1l9.9-9.9c1.5-.6 4.7-1.9 6.5-3.7l.4-.4-.2-.5c-1.2-2.2-4.4-5.4-5.3-6.4zm-12.2 19.7a17.907 17.907 0 0 1-4.3-3.2 18.739 18.739 0 0 1-3.2-4.3l9.3-9.3a17.907 17.907 0 0 1 4.3 3.2 18.739 18.739 0 0 1 3.2 4.3zm-2.3 3.4a3.039 3.039 0 0 0-.5.7 23.26 23.26 0 0 1-4.9-3.8 24.532 24.532 0 0 1-3.9-5 14.92 14.92 0 0 1 2.9-2 20.448 20.448 0 0 0 7.9 7.9 17.033 17.033 0 0 1-1.5 2.2zM29.75 24a19.627 19.627 0 0 0-3.4-4.5 22.032 22.032 0 0 0-4.5-3.4 17.335 17.335 0 0 1 2.8-5.1 28.767 28.767 0 0 1 5.7 4.6 28.767 28.767 0 0 1 4.6 5.7 19.949 19.949 0 0 1-5.2 2.7zM40.65 0h1.5v6h-1.5zM39.65 33h1.5v6h-1.5zM39.65 24h1.5v6h-1.5zM39.65 42h1.5v6h-1.5z"/>
</svg>