<svg xmlns="http://www.w3.org/2000/svg" 
    xmlns:xlink="http://www.w3.org/1999/xlink" width="1264px" height="437px">
    <path fill-rule="evenodd" fill="rgb(255, 255, 255)" d="M251.998,433.394 L163.413,294.529 L419.168,138.661 C428.740,163.286 434.001,190.082 434.001,218.122 C434.001,326.710 355.171,416.745 251.998,433.394 ZM82.415,47.705 C119.445,17.907 166.389,0.079 217.476,0.079 C299.384,0.079 370.663,45.882 407.451,113.439 L258.943,177.607 L82.415,47.705 ZM52.554,270.695 L210.889,436.055 C94.353,432.548 0.951,336.324 0.951,218.122 C0.951,155.665 27.032,99.352 68.819,59.601 L199.971,203.669 L52.554,270.695 Z"/>
    <path fill-rule="evenodd" fill="rgb(255, 255, 255)" d="M1196.690,151.694 C1195.899,151.583 1194.974,151.536 1193.917,151.536 C1188.696,151.583 1183.904,152.947 1179.563,155.635 C1175.212,158.315 1171.480,162.098 1168.277,166.890 C1165.158,171.695 1162.650,177.248 1160.903,183.647 C1159.190,189.983 1158.312,196.851 1158.278,204.186 L1158.278,277.362 L1149.923,277.362 L1149.923,185.191 C1149.923,179.127 1149.835,172.791 1149.705,166.196 C1149.579,159.573 1149.314,153.084 1148.963,146.663 L1156.864,146.663 L1157.351,173.959 L1158.047,173.959 C1159.364,169.912 1161.161,166.082 1163.449,162.453 C1165.688,158.814 1168.363,155.597 1171.480,152.791 C1174.649,149.992 1178.118,147.802 1182.024,146.213 C1185.891,144.574 1190.099,143.773 1194.673,143.729 C1195.499,143.729 1196.295,143.773 1197.043,143.893 C1197.781,144.020 1198.590,144.223 1199.451,144.469 L1199.451,152.031 C1198.403,151.895 1197.474,151.782 1196.690,151.694 ZM1134.823,208.595 L1038.397,208.595 C1038.354,222.265 1040.332,233.899 1044.323,243.484 C1048.320,253.054 1054.117,260.351 1061.711,265.364 C1069.353,270.373 1078.531,272.927 1089.372,272.978 C1095.698,272.927 1101.099,272.475 1105.577,271.580 C1110.059,270.690 1113.835,269.569 1116.956,268.320 C1120.072,267.064 1122.733,265.857 1124.984,264.642 L1127.892,271.222 C1126.650,272.082 1124.464,273.100 1121.124,274.489 C1117.832,275.876 1113.432,277.079 1107.995,278.255 C1102.508,279.369 1095.873,279.948 1088.148,280.045 C1079.146,279.999 1071.113,278.334 1063.906,275.115 C1056.758,271.899 1050.610,267.329 1045.552,261.501 C1040.417,255.654 1036.550,248.684 1033.880,240.741 C1031.195,232.785 1029.836,223.965 1029.790,214.434 C1029.836,203.089 1031.291,193.021 1034.222,184.250 C1037.077,175.473 1041.119,168.118 1046.254,162.054 C1051.393,156.037 1057.363,151.496 1064.218,148.407 C1071.024,145.316 1078.357,143.729 1086.259,143.729 C1093.811,143.773 1100.392,145.024 1105.930,147.462 C1111.468,149.901 1116.120,153.193 1119.845,157.375 C1123.599,161.537 1126.612,166.239 1128.806,171.491 C1131.047,176.730 1132.671,182.169 1133.588,187.835 C1134.600,193.471 1135.085,199.045 1135.041,204.431 C1135.041,205.292 1135.041,206.021 1134.996,206.675 C1134.996,207.364 1134.906,207.972 1134.823,208.595 ZM1125.205,192.219 C1124.812,188.794 1124.066,185.211 1123.017,181.438 C1121.912,177.677 1120.464,173.959 1118.490,170.311 C1116.600,166.641 1114.098,163.350 1111.115,160.400 C1108.126,157.423 1104.523,155.028 1100.262,153.283 C1096.006,151.496 1091.049,150.600 1085.296,150.551 C1079.326,150.600 1073.965,151.649 1069.267,153.729 C1064.562,155.815 1060.393,158.568 1056.882,162.054 C1053.372,165.594 1050.366,169.505 1047.922,173.892 C1045.517,178.278 1043.580,182.770 1042.171,187.450 C1040.772,192.124 1039.849,196.649 1039.363,201.036 L1125.740,201.036 C1125.780,198.548 1125.600,195.616 1125.205,192.219 ZM1008.452,201.280 C1008.452,190.922 1007.141,181.968 1004.548,174.491 C1001.916,166.980 997.957,161.247 992.708,157.174 C987.429,153.130 980.792,151.090 972.801,151.044 C967.531,151.090 962.526,152.341 957.872,154.740 C953.261,157.147 949.090,160.353 945.529,164.381 C942.013,168.402 939.168,172.857 937.190,177.787 C935.127,182.702 934.119,187.652 934.071,192.729 L934.071,277.362 L925.684,277.362 L925.684,194.924 C925.684,188.716 924.988,182.981 923.529,177.677 C922.073,172.381 919.895,167.746 917.074,163.772 C914.274,159.794 910.714,156.660 906.499,154.429 C902.326,152.231 897.444,151.090 891.963,151.044 C887.306,151.090 882.916,151.984 878.793,153.818 C874.749,155.597 870.970,158.028 867.638,161.122 C864.253,164.179 861.361,167.669 858.895,171.561 C856.481,175.473 854.595,179.578 853.277,183.801 C851.960,188.064 851.299,192.260 851.299,196.402 L851.299,277.362 L842.911,277.362 L842.911,176.150 C842.911,172.456 842.870,168.971 842.819,165.755 C842.745,162.499 842.694,159.346 842.519,156.259 C842.390,153.167 842.217,149.950 841.950,146.663 L850.115,146.663 L850.819,170.805 L851.299,170.805 C854.112,165.312 857.489,160.554 861.400,156.526 C865.305,152.479 869.922,149.350 875.240,147.110 C880.502,144.914 886.647,143.773 893.633,143.729 C899.643,143.773 905.137,145.115 910.056,147.713 C914.973,150.308 919.182,153.818 922.702,158.276 C926.168,162.746 928.758,167.782 930.472,173.487 L930.957,173.487 C931.917,171.251 933.149,168.813 934.730,166.172 C936.314,163.529 938.278,160.893 940.659,158.276 C942.988,155.635 945.797,153.236 949.090,151.044 C952.384,148.852 956.204,147.110 960.548,145.764 C964.892,144.469 969.857,143.773 975.433,143.729 C977.236,143.683 979.474,143.893 982.195,144.376 C984.876,144.823 987.776,145.675 990.889,147.017 C993.967,148.313 997.044,150.284 1000.087,152.791 C1003.139,155.362 1005.909,158.720 1008.452,162.886 C1010.949,167.018 1012.976,172.166 1014.509,178.320 C1016.055,184.451 1016.792,191.810 1016.841,200.299 L1016.841,277.362 L1008.452,277.362 L1008.452,201.280 ZM810.336,201.280 C810.336,190.922 809.018,181.968 806.434,174.491 C803.800,166.980 799.853,161.247 794.621,157.174 C789.304,153.130 782.672,151.090 774.714,151.044 C769.414,151.090 764.409,152.341 759.758,154.740 C755.146,157.147 750.973,160.353 747.413,164.381 C743.901,168.402 741.046,172.857 739.073,177.787 C737.009,182.702 736.003,187.652 735.955,192.729 L735.955,277.362 L727.567,277.362 L727.567,194.924 C727.567,188.716 726.873,182.981 725.415,177.677 C723.965,172.381 721.814,167.746 718.960,163.772 C716.151,159.794 712.594,156.660 708.390,154.429 C704.211,152.231 699.328,151.090 693.843,151.044 C689.195,151.090 684.804,151.984 680.673,153.818 C676.629,155.597 672.852,158.028 669.521,161.122 C666.141,164.179 663.240,167.669 660.778,171.561 C658.366,175.473 656.479,179.578 655.161,183.801 C653.843,188.064 653.180,192.260 653.180,196.402 L653.180,277.362 L644.791,277.362 L644.791,176.150 C644.791,172.456 644.755,168.971 644.710,165.755 C644.671,162.499 644.580,159.346 644.401,156.259 C644.267,153.167 644.096,149.950 643.834,146.663 L652.001,146.663 L652.703,170.805 L653.180,170.805 C655.997,165.312 659.423,160.554 663.317,156.526 C667.227,152.479 671.802,149.350 677.116,147.110 C682.386,144.914 688.531,143.773 695.513,143.729 C701.524,143.773 707.020,145.115 711.940,147.713 C716.856,150.308 721.065,153.818 724.584,158.276 C728.051,162.746 730.645,167.782 732.355,173.487 L732.840,173.487 C733.804,171.251 735.029,168.813 736.613,166.172 C738.195,163.529 740.163,160.893 742.545,158.276 C744.869,155.635 747.680,153.236 750.973,151.044 C754.265,148.852 758.085,147.110 762.433,145.764 C766.780,144.469 771.734,143.773 777.313,143.729 C779.112,143.683 781.357,143.893 784.078,144.376 C786.763,144.823 789.654,145.675 792.772,147.017 C795.853,148.313 798.967,150.284 801.997,152.791 C805.055,155.362 807.793,158.720 810.336,162.886 C812.854,167.018 814.858,172.166 816.396,178.320 C817.929,184.451 818.678,191.810 818.727,200.299 L818.727,277.362 L810.336,277.362 L810.336,201.280 ZM614.874,118.871 C613.184,118.825 611.716,118.376 610.484,117.486 C609.210,116.543 608.247,115.380 607.563,113.904 C606.867,112.446 606.488,110.815 606.488,109.113 C606.488,107.370 606.888,105.783 607.607,104.321 C608.335,102.846 609.364,101.640 610.637,100.743 C611.910,99.851 613.426,99.406 615.105,99.356 C616.783,99.356 618.260,99.805 619.485,100.700 C620.759,101.551 621.731,102.731 622.451,104.191 C623.117,105.668 623.479,107.280 623.479,109.113 C623.435,112.088 622.647,114.435 621.047,116.189 C619.485,117.928 617.422,118.825 614.874,118.871 ZM583.971,255.608 C580.214,261.152 575.910,265.767 571.062,269.438 C566.182,273.061 561.047,275.794 555.626,277.581 C550.200,279.369 544.736,280.270 539.248,280.270 C528.751,280.312 519.659,278.069 511.938,273.593 C504.226,269.177 497.689,262.186 492.351,252.692 L491.623,252.692 L490.923,277.362 L483.019,277.362 C483.264,274.227 483.459,270.954 483.564,267.601 C483.745,264.198 483.809,260.888 483.897,257.580 C483.942,254.309 483.985,251.223 483.985,248.308 L483.985,83.516 L492.351,83.516 L492.351,172.747 L492.835,172.747 C495.620,167.180 499.249,162.189 503.717,157.824 C508.179,153.484 513.468,150.080 519.659,147.559 C525.881,145.070 532.944,143.773 540.918,143.729 C549.212,143.773 556.699,145.440 563.487,148.698 C570.225,151.940 576.042,156.526 580.939,162.499 C585.814,168.429 589.545,175.499 592.180,183.647 C594.815,191.767 596.131,200.743 596.174,210.543 C596.131,220.054 595.013,228.529 592.859,236.052 C590.710,243.523 587.765,250.062 583.971,255.608 ZM584.449,188.187 C582.349,181.026 579.314,174.701 575.233,169.121 C571.212,163.554 566.229,159.166 560.319,155.967 C554.395,152.748 547.606,151.090 539.947,151.044 C533.890,151.090 528.357,152.186 523.332,154.333 C518.345,156.480 513.908,159.346 510.089,162.905 C506.227,166.530 502.997,170.466 500.363,174.854 C497.724,179.218 495.729,183.647 494.391,188.096 C493.029,192.620 492.351,196.851 492.351,200.790 L492.351,226.876 C492.351,231.046 493.077,235.336 494.417,239.632 C495.824,243.972 497.856,248.132 500.474,252.157 C503.104,256.141 506.316,259.727 510.089,262.851 C513.842,265.989 518.104,268.534 522.886,270.339 C527.628,272.211 532.855,273.147 538.522,273.197 C546.289,273.147 553.235,271.580 559.290,268.496 C565.397,265.411 570.487,261.056 574.729,255.427 C578.907,249.833 582.106,243.253 584.298,235.648 C586.447,228.078 587.568,219.807 587.568,210.792 C587.568,202.858 586.513,195.303 584.449,188.187 ZM619.179,277.362 L610.791,277.362 L610.791,146.663 L619.179,146.663 L619.179,277.362 Z"/>
    <path fill-rule="evenodd" fill="rgb(255, 255, 255)" d="M1258.373,404.265 L1258.373,351.959 C1258.403,347.884 1257.956,343.939 1257.094,340.124 C1256.222,336.292 1254.854,332.873 1252.880,329.833 C1250.993,326.807 1248.423,324.362 1245.225,322.563 C1241.969,320.773 1238.053,319.842 1233.397,319.806 C1229.713,319.842 1226.097,320.687 1222.656,322.287 C1219.196,323.865 1216.066,326.087 1213.328,328.968 C1210.588,331.773 1208.405,335.076 1206.795,338.797 C1205.129,342.544 1204.306,346.539 1204.274,350.794 L1204.274,404.265 L1198.682,404.265 L1198.682,274.692 L1204.274,274.692 L1204.274,333.380 L1204.627,333.380 C1206.795,329.524 1209.170,326.401 1211.837,323.928 C1214.486,321.538 1217.212,319.651 1219.960,318.346 C1222.744,317.043 1225.392,316.147 1227.859,315.654 C1230.355,315.149 1232.518,314.933 1234.364,314.944 C1235.678,314.933 1237.291,315.035 1239.230,315.305 C1241.145,315.564 1243.227,316.110 1245.435,316.895 C1247.659,317.704 1249.873,318.923 1252.030,320.514 C1254.217,322.131 1256.209,324.244 1257.966,326.937 C1259.781,329.601 1261.212,332.964 1262.297,336.965 C1263.367,340.959 1263.948,345.730 1263.967,351.280 L1263.967,404.265 L1258.373,404.265 ZM1179.182,322.911 C1177.258,322.013 1174.979,321.259 1172.421,320.665 C1169.867,320.028 1166.956,319.704 1163.793,319.678 C1158.898,319.704 1154.495,320.430 1150.542,321.909 C1146.581,323.344 1143.115,325.380 1140.088,327.989 C1137.072,330.591 1134.553,333.629 1132.543,337.064 C1130.502,340.562 1128.929,344.315 1127.912,348.366 C1126.885,352.421 1126.338,356.579 1126.338,360.894 C1126.371,366.924 1127.257,372.385 1128.988,377.342 C1130.750,382.265 1133.185,386.514 1136.374,390.110 C1139.589,393.694 1143.334,396.457 1147.681,398.428 C1152.030,400.333 1156.801,401.319 1162.034,401.343 C1165.637,401.319 1168.812,400.997 1171.543,400.333 C1174.302,399.697 1176.680,398.904 1178.725,398.031 C1180.779,397.168 1182.557,396.364 1184.098,395.648 L1186.350,399.865 C1185.148,400.539 1183.410,401.319 1181.060,402.275 C1178.725,403.265 1175.893,404.130 1172.545,404.881 C1169.149,405.627 1165.318,406.005 1161.062,406.058 C1154.943,406.030 1149.441,404.935 1144.460,402.773 C1139.529,400.598 1135.302,397.530 1131.715,393.566 C1128.130,389.599 1125.397,384.863 1123.511,379.427 C1121.566,374.049 1120.600,368.078 1120.579,361.571 C1120.600,354.500 1121.743,348.080 1123.904,342.364 C1126.100,336.669 1129.135,331.737 1133.059,327.705 C1136.946,323.579 1141.513,320.455 1146.766,318.262 C1152.030,316.087 1157.766,314.950 1163.921,314.944 C1165.746,314.944 1167.738,315.060 1169.810,315.366 C1171.879,315.590 1173.978,315.999 1176.058,316.518 C1178.198,317.079 1180.123,317.704 1181.967,318.506 C1183.792,319.340 1185.342,320.244 1186.652,321.289 L1184.098,325.543 C1182.765,324.679 1181.151,323.807 1179.182,322.911 ZM1114.136,358.287 L1049.682,358.287 C1049.661,367.475 1050.961,375.227 1053.669,381.650 C1056.339,388.031 1060.201,392.920 1065.283,396.243 C1070.369,399.643 1076.529,401.319 1083.744,401.343 C1088.020,401.319 1091.614,401.034 1094.594,400.420 C1097.596,399.807 1100.147,399.083 1102.216,398.249 C1104.283,397.415 1106.074,396.607 1107.577,395.777 L1109.512,400.203 C1108.718,400.734 1107.206,401.468 1104.990,402.403 C1102.797,403.286 1099.843,404.130 1096.224,404.881 C1092.549,405.627 1088.116,406.005 1082.946,406.058 C1076.925,406.030 1071.572,404.972 1066.768,402.800 C1061.960,400.633 1057.840,397.574 1054.460,393.672 C1051.046,389.765 1048.471,385.136 1046.650,379.817 C1044.855,374.483 1043.949,368.607 1043.915,362.213 C1043.949,354.662 1044.945,347.905 1046.896,342.019 C1048.812,336.150 1051.506,331.262 1054.948,327.208 C1058.380,323.181 1062.388,320.138 1066.924,318.045 C1071.507,315.999 1076.388,314.944 1081.673,314.944 C1086.762,314.950 1091.130,315.827 1094.857,317.443 C1098.545,319.062 1101.641,321.259 1104.141,324.076 C1106.688,326.864 1108.663,329.966 1110.174,333.496 C1111.645,337.028 1112.736,340.631 1113.349,344.434 C1114.038,348.187 1114.338,351.930 1114.310,355.552 C1114.310,356.093 1114.310,356.579 1114.286,357.018 C1114.286,357.489 1114.225,357.882 1114.136,358.287 ZM1107.725,347.353 C1107.471,345.060 1106.991,342.696 1106.263,340.128 C1105.539,337.617 1104.536,335.167 1103.239,332.693 C1101.954,330.270 1100.307,328.070 1098.329,326.066 C1096.308,324.102 1093.888,322.473 1091.090,321.323 C1088.204,320.138 1084.890,319.524 1081.051,319.503 C1077.040,319.524 1073.459,320.244 1070.304,321.607 C1067.193,322.995 1064.403,324.852 1062.055,327.208 C1059.688,329.537 1057.711,332.177 1056.051,335.109 C1054.434,338.027 1053.158,341.031 1052.214,344.155 C1051.243,347.292 1050.659,350.290 1050.350,353.261 L1108.058,353.261 C1108.117,351.612 1107.995,349.640 1107.725,347.353 ZM1015.592,382.082 C1015.592,385.825 1016.081,389.149 1016.980,392.025 C1017.935,394.896 1019.424,397.144 1021.407,398.835 C1023.399,400.484 1025.931,401.319 1029.022,401.343 C1031.240,401.319 1033.108,401.133 1034.650,400.822 C1036.144,400.508 1037.423,400.164 1038.457,399.733 L1039.736,403.945 C1038.397,404.564 1036.846,405.052 1035.054,405.461 C1033.279,405.873 1031.157,406.030 1028.693,406.058 C1025.227,406.030 1022.351,405.495 1020.038,404.358 C1017.781,403.265 1015.931,401.759 1014.560,399.895 C1013.193,398.031 1012.222,395.984 1011.559,393.694 C1010.903,391.431 1010.478,389.149 1010.251,386.779 C1010.044,384.430 1009.966,382.239 1009.999,380.160 L1009.999,321.968 L995.110,321.968 L995.110,316.895 L1009.999,316.895 L1009.999,300.905 L1015.592,298.302 L1015.592,316.895 L1040.834,316.895 L1040.834,321.968 L1015.592,321.968 L1015.592,382.082 Z"/>
</svg>