<svg id="coding_icon" data-name="coding icon" xmlns="http://www.w3.org/2000/svg" width="73" height="68" viewBox="0 0 73 68">
  <metadata><?xpacket begin="﻿" id="W5M0MpCehiHzreSzNTczkc9d"?>
<x:xmpmeta xmlns:x="adobe:ns:meta/" x:xmptk="Adobe XMP Core 5.6-c142 79.160924, 2017/07/13-01:06:39        ">
   <rdf:RDF xmlns:rdf="http://www.w3.org/1999/02/22-rdf-syntax-ns#">
      <rdf:Description rdf:about=""/>
   </rdf:RDF>
</x:xmpmeta>
                                                                                                    
                                                                                                    
                                                                                                    
                                                                                                    
                                                                                                    
                                                                                                    
                                                                                                    
                                                                                                    
                                                                                                    
                                                                                                    
                                                                                                    
                                                                                                    
                                                                                                    
                                                                                                    
                                                                                                    
                                                                                                    
                                                                                                    
                                                                                                    
                                                                                                    
                                                                                                    
                           
<?xpacket end="w"?></metadata>
<defs>
    <style>
      .cls-1 {
        fill: #1ca3c2;
      }

      .cls-2 {
        fill: #757575;
        fill-rule: evenodd;
      }
    </style>
  </defs>
  <circle class="cls-1" cx="58.78" cy="53.907" r="14.22"/>
  <rect class="cls-1" x="22.16" y="11.063" width="42.09" height="9.218"/>
  <path class="cls-2" d="M4548.34,881.745a14.248,14.248,0,1,1,14.39-14.248A14.33,14.33,0,0,1,4548.34,881.745Zm0-26.4a12.15,12.15,0,1,0,12.27,12.149A12.227,12.227,0,0,0,4548.34,855.348ZM4543.61,872l-4.54-4.5,4.55-4.5,1.49,1.483-3.04,3.016,3.04,3.017Zm9.46,0-1.5-1.484,3.05-3.017-3.05-3.016,1.5-1.483,4.55,4.5Zm-5.44,1.841-2.04-.573,3.47-12.109,2.04,0.572Zm-22.71-33.971h-6.34v-2.1h6.34v2.1Zm6.83,7.994h-6.83v-2.1h6.83v2.1Zm0,4h-6.83v-2.1h6.83v2.1Zm0,11.991h-6.83v-2.1h6.83v2.1Zm0,4h-6.83v-2.1h6.83v2.1Zm0-23.981h-13.17v-2.1h13.17v2.1Zm-6.83,11.992h-6.34v-2.1h6.34v2.1Zm6.83,4h-13.17v-2.1h13.17v2.1Zm9.5-11.988h-6.83v-2.1h6.83v2.1Zm6.34,4h-13.17v-2.1h13.17v2.1Zm-6.34-7.994h-6.83v-2.1h6.83v2.1Zm12.91-9.745h-42.14v-9.091h42.14v9.091Zm-40.03-2.1h37.91v-4.895h-37.91v4.895Zm6.57-1.4h-2.12v-2.1h2.12v2.1Zm4.23,0h-2.12v-2.1h2.12v2.1Zm4.24,0h-2.12v-2.1h2.12v2.1Zm2.58,42.972h-19.73V832.02h42.14v19.889h-2.12V834.118h-37.91V871.5h17.62v2.1Zm-30.19,5.848a4.129,4.129,0,1,1,4.17-4.129A4.154,4.154,0,0,1,4501.56,879.441Zm0-6.16a2.031,2.031,0,1,0,2.05,2.031A2.043,2.043,0,0,0,4501.56,873.281Zm7.71,6.16h-2.12v-8.258h2.12v8.258Zm36-57.189a4.13,4.13,0,1,1,4.17-4.129A4.154,4.154,0,0,1,4545.27,822.252Zm0-6.16a2.031,2.031,0,1,0,2.05,2.031A2.043,2.043,0,0,0,4545.27,816.092Zm-5.6,6.16h-2.12v-8.259h2.12v8.259Zm-3.54,0h-2.12v-8.259h2.12v8.259Zm-30.86,36.406h-1.06v-2.1h1.06a1.156,1.156,0,0,0,.82-0.338,1.134,1.134,0,0,0,.34-0.814v-8.8a1.14,1.14,0,0,0-.34-0.815,1.158,1.158,0,0,0-.82-0.336h-1.06v-2.1h1.06a3.276,3.276,0,0,1,2.32.95,3.215,3.215,0,0,1,.96,2.3v8.8a3.211,3.211,0,0,1-.96,2.3A3.269,3.269,0,0,1,4505.27,858.658Zm-10.93,0h-1.06a3.269,3.269,0,0,1-2.32-.952,3.215,3.215,0,0,1-.96-2.3v-8.8a3.209,3.209,0,0,1,.96-2.3,3.265,3.265,0,0,1,2.32-.952h1.06v2.1h-1.06a1.156,1.156,0,0,0-1.17,1.151v8.8a1.156,1.156,0,0,0,1.17,1.152h1.06v2.1Zm1.96-6.6h-2.12v-2.1h2.12v2.1Zm3.81,0h-2.12v-2.1h2.12v2.1Zm3.81,0h-2.11v-2.1h2.11v2.1Z" transform="translate(-4490 -814)"/>
</svg>
