<?xml version="1.0" encoding="utf-8"?><svg xmlns="http://www.w3.org/2000/svg" viewBox="0 0 45.491 45.5">
  <defs>
    <style>
      .cls-1 {
        fill: #1ca3c2;
      }
    </style>
  </defs>
  <g id="Group_7" data-name="Group 7" transform="translate(0.025)">
    <path id="Path_201" data-name="Path 201" class="cls-1" d="M45.4,21.3A4.8,4.8,0,0,0,40.6,20c-2.1.5-3.2,1.9-4.4,4.2l-3.6,1.9A3.609,3.609,0,0,0,29.8,25H24.5a2.609,2.609,0,0,1-1-.7A4.887,4.887,0,0,0,20.8,23h-5c-1.6,0-3.4,1.2-4.5,2.2L7.8,28.7,6.3,27.2a.785.785,0,0,0-1.1,0l-5,5a.785.785,0,0,0,0,1.1l12,12a.725.725,0,0,0,1,0l5-5a.785.785,0,0,0,0-1.1l-1.5-1.5a1.222,1.222,0,0,1,.9-.3h14c1.7,0,8.5-7.2,8.6-7.3a47.177,47.177,0,0,0,5.1-8.2C45.5,21.8,45.5,21.5,45.4,21.3ZM12.8,43.7,1.8,32.8l3.9-3.9L16.6,39.8ZM39.2,29.3c-1.2,1.4-6.5,6.5-7.4,6.7h-14a2.651,2.651,0,0,0-2,.7L8.9,29.8l3.5-3.5a5.946,5.946,0,0,1,3.5-1.8h5c.5,0,1.2.6,1.8,1a3.909,3.909,0,0,0,1.9,1h5.3c1.6,0,2.3.9,2.3,1.8S31.3,30,29.8,30h-8v1.5h8c2.5,0,3.8-1.6,3.8-3.3,0-.3-.1-.6-.1-.9l3.7-1.9c.1-.1.3-.2.3-.3,1.2-2.3,2.1-3.3,3.5-3.6a3.605,3.605,0,0,1,2.9.4A84.511,84.511,0,0,1,39.2,29.3Z"/>
    <rect id="Rectangle_135" data-name="Rectangle 135" class="cls-1" width="1.5" height="2.8" transform="translate(5.194 33.255) rotate(-45)"/>
    <rect id="Rectangle_136" data-name="Rectangle 136" class="cls-1" width="10" height="1.5" transform="translate(17.8 13)"/>
    <path id="Path_202" data-name="Path 202" class="cls-1" d="M7.6,8.8,9,9.3v.2a4.49,4.49,0,0,0-1,2.7v1.6a3.946,3.946,0,0,0,1,2.5v2.5a1.793,1.793,0,0,0,1.8,1.8h4a1.793,1.793,0,0,0,1.8-1.8V17.5H29v1.3a1.793,1.793,0,0,0,1.8,1.8h4a1.793,1.793,0,0,0,1.8-1.8V16.3a3.946,3.946,0,0,0,1-2.5V12.2a4.268,4.268,0,0,0-1-2.7V9.3L38,8.8a1.735,1.735,0,0,0,1.6-1.7V5.8A1.793,1.793,0,0,0,37.8,4h-3c-.4,0-.6.2-1.3.8l-.2.2L32.2,2.6A3.843,3.843,0,0,0,28.6,0H16.9a3.664,3.664,0,0,0-3.5,2.5L12.3,5l-.2-.2c-.7-.6-1-.8-1.3-.8h-3A1.793,1.793,0,0,0,6,5.8V7.1A1.666,1.666,0,0,0,7.6,8.8ZM14.8,3a2.256,2.256,0,0,1,2.1-1.5H28.6a2.34,2.34,0,0,1,2.2,1.6L32,5.9A4.513,4.513,0,0,1,29.8,7h-14a4.4,4.4,0,0,1-2.3-1.1ZM7.5,5.8a.319.319,0,0,1,.3-.3h2.8a2.181,2.181,0,0,0,.5.4c1.1,1,3,2.6,4.7,2.6h14c1.7,0,3.5-1.6,4.7-2.6.2-.2.4-.3.5-.4h2.8a.319.319,0,0,1,.3.3V7.1a.319.319,0,0,1-.3.3L35,8.2v1.9l.2.2a2.732,2.732,0,0,1,.8,1.9v1.6a2.465,2.465,0,0,1-.8,1.7l-.2.1v3.1a.319.319,0,0,1-.3.3h-4a.319.319,0,0,1-.3-.3V17.4h3.3V16h-22v1.5H15v1.3a.319.319,0,0,1-.3.3h-4a.319.319,0,0,1-.3-.3V15.7l-.2-.2a2.136,2.136,0,0,1-.8-1.7V12.2a2.732,2.732,0,0,1,.8-1.9l.2-.2V8.2L8,7.4H7.8a.319.319,0,0,1-.3-.3Z"/>
    <path id="Path_203" data-name="Path 203" class="cls-1" d="M32.9,9.6A6.561,6.561,0,0,1,28.8,11v1.5a8.55,8.55,0,0,0,5.1-1.8Z"/>
    <path id="Path_204" data-name="Path 204" class="cls-1" d="M16.8,11a6.561,6.561,0,0,1-4.1-1.4l-1,1.1a8.108,8.108,0,0,0,5.1,1.8Z"/>
  </g>
</svg>
