<?xml version="1.0" encoding="utf-8"?><svg xmlns="http://www.w3.org/2000/svg" viewBox="0 0 35.2 47.5"><g fill="none" stroke="#1ca3c2" stroke-miterlimit="10"><path d="M11.7 32.5v-8h23v19h-23v-5"/><path d="M19.7 24.5v4h7v-4M32.7 24.5l-2.2-3.7c-.5-.8-1.3-1.4-2.2-1.7l-4.6-1.5M11.7 17.5l-5.4 2.3c-1 .4-1.8 1.3-2.2 2.3L.7 31.6c-.6 1.6.3 3.3 1.8 3.8l14.2 5M18.7 36.5l-11-6M7.7 37.5v10M26.7 43.5v4M23.7 10.5v2.8c0 .8-.3 1.6-.9 2.1l-2.5 2.5c-.4.4-.9.6-1.4.6h-2.3c-.5 0-1-.2-1.4-.6l-2.5-2.5c-.6-.6-.9-1.3-.9-2.1V5.5c0-2.8 2.2-5 5-5h2c2.8 0 5 2.2 5 5v3M14.7 8.5h16M31.7 39.5h-2M28.7 39.5h-2"/></g></svg>