<?xml version="1.0" encoding="utf-8"?><svg xmlns="http://www.w3.org/2000/svg" width="13.75" height="10.75"><path fill-rule="evenodd" stroke="#757575" stroke-width=".5" fill="#757575" d="M12.057 1.089H1.443c-.11 0-.199.098-.199.218v7.552c0 .12.089.218.199.218h10.614c.11 0 .199-.098.199-.218V1.307c0-.12-.089-.218-.199-.218zm-10.415.673l3.485 3.076-3.485 3.514v-6.59zM6.75 5.711L2.007 1.525h9.486L6.75 5.711zm-1.31-.596l1.185 1.046a.19.19 0 0 0 .125.048.191.191 0 0 0 .124-.048h.001L8.06 5.115l3.497 3.526H1.943L5.44 5.115zm2.933-.277l3.485-3.076v6.59L8.373 4.838z"/></svg>