<svg xmlns="http://www.w3.org/2000/svg" xmlns:xlink="http://www.w3.org/1999/xlink" viewBox="0 0 72 72"><defs><path id="a" d="M0 0h72v72H0z"/></defs><defs><path id="c" d="M8 0h56c4.4 0 8 3.6 8 8v56c0 4.4-3.6 8-8 8H8c-4.4 0-8-3.6-8-8V8c0-4.4 3.6-8 8-8z"/></defs><clipPath id="b"><use overflow="visible" xlink:href="#a"/></clipPath><clipPath id="d" clip-path="url(#b)"><use overflow="visible" xlink:href="#c"/></clipPath><path fill="#757575" d="M-5-5h82v82H-5z" clip-path="url(#d)"/><g><defs><path id="e" d="M0 0h72v72H0z"/></defs><defs><path id="g" d="M60.5 13.4v9.3H55c-4.3 0-5.2 2.1-5.2 5.1v6.7h10.3l-1.3 10.4h-9V72H39V44.9h-9V34.5h9v-7.7C39 17.9 44.4 13 52.4 13c3.8 0 7.1.3 8.1.4z"/></defs><clipPath id="f"><use overflow="visible" xlink:href="#e"/></clipPath><clipPath id="h" clip-path="url(#f)"><use overflow="visible" xlink:href="#g"/></clipPath><path fill="#fff" d="M25 8h40.5v69H25z" clip-path="url(#h)"/></g></svg>