<svg xmlns="http://www.w3.org/2000/svg" xmlns:xlink="http://www.w3.org/1999/xlink" viewBox="0 0 82 82"><defs><style>.cls-1,.cls-2{fill:none;}.cls-2{clip-path:url(#clip-path);clip-rule:evenodd;}.cls-3{clip-path:url(#clip-path-3);}.cls-4{fill:#757575;}.cls-5{clip-path:url(#clip-path-4);}.cls-6{fill:#fff;}</style><clipPath id="clip-path"><rect class="cls-1" x="5" y="5" width="72" height="72"/></clipPath><clipPath id="clip-path-3"><path class="cls-2" d="M13,5H69a8,8,0,0,1,8,8V69a8,8,0,0,1-8,8H13a8,8,0,0,1-8-8V13a8,8,0,0,1,8-8Z"/></clipPath><clipPath id="clip-path-4"><path class="cls-2" d="M65.46,18.42v9.31H59.94c-4.33,0-5.17,2.06-5.17,5.07v6.66H65.09L63.75,49.89h-9V77H44V49.89H35V39.47h9V31.79C44,22.86,49.45,18,57.42,18a72.39,72.39,0,0,1,8,.42Z"/></clipPath></defs><title>facebook</title><g id="Layer_2" data-name="Layer 2"><g id="Layer_1-2" data-name="Layer 1"><g class="cls-3"><rect class="cls-4" width="82" height="82"/></g><g class="cls-5"><rect class="cls-6" x="30" y="13" width="40.46" height="69"/></g></g></g></svg>