<svg xmlns="http://www.w3.org/2000/svg" xmlns:xlink="http://www.w3.org/1999/xlink" viewBox="0 0 72 72">
  <defs>
    <path id="a" d="M0 0h72v72H0z"/>
  </defs>
  <defs>
    <path id="c" d="M8 72h56c4.4 0 8-3.6 8-8V8c0-4.4-3.6-8-8-8H8C3.6 0 0 3.6 0 8v56c0 4.4 3.6 8 8 8z"/>
  </defs>
  <clipPath id="b">
    <use xlink:href="#a" overflow="visible"/>
  </clipPath>
  <clipPath id="d" clip-path="url(#b)">
    <use xlink:href="#c" overflow="visible"/>
  </clipPath>
  <path clip-path="url(#d)" fill="#757575" d="M-5-5h82v82H-5z"/>
  <g>
    <defs>
      <path id="e" d="M0 0h72v72H0z"/>
    </defs>
    <defs>
      <path id="g" d="M36 12c6.5 0 7.3 0 9.9.1 2.6.1 4.3.5 5.8 1.1 1.6.6 2.9 1.4 4.3 2.8 1.3 1.3 2.2 2.7 2.8 4.3.6 1.5 1 3.3 1.1 5.8.1 2.6.1 3.4.1 9.9s0 7.3-.1 9.9c-.1 2.6-.5 4.3-1.1 5.8-.6 1.6-1.4 2.9-2.8 4.3-1.3 1.3-2.7 2.2-4.3 2.8-1.5.6-3.3 1-5.8 1.1-2.6.1-3.4.1-9.9.1s-7.3 0-9.9-.1c-2.6-.1-4.3-.5-5.8-1.1-1.6-.6-2.9-1.4-4.3-2.8-1.3-1.3-2.2-2.7-2.8-4.3-.6-1.5-1-3.3-1.1-5.8-.1-2.6-.1-3.4-.1-9.9s0-7.3.1-9.9c.1-2.6.5-4.3 1.1-5.8.6-1.6 1.4-2.9 2.8-4.3 1.3-1.3 2.7-2.2 4.3-2.8 1.5-.6 3.3-1 5.8-1.1 2.6-.1 3.4-.1 9.9-.1zm0 4.3c-6.4 0-7.2 0-9.7.1-2.3.1-3.6.5-4.5.8-1.1.4-1.9 1-2.8 1.8-.8.8-1.4 1.6-1.8 2.8-.3.8-.7 2.1-.8 4.5-.1 2.5-.1 3.3-.1 9.7 0 6.4 0 7.2.1 9.7.1 2.3.5 3.6.8 4.5.4 1.1 1 1.9 1.8 2.8.8.8 1.6 1.4 2.8 1.8.8.3 2.1.7 4.5.8 2.5.1 3.3.1 9.7.1 6.4 0 7.2 0 9.7-.1 2.3-.1 3.6-.5 4.5-.8 1.1-.4 1.9-1 2.8-1.8.8-.8 1.4-1.6 1.8-2.8.3-.8.7-2.1.8-4.5.1-2.5.1-3.3.1-9.7 0-6.4 0-7.2-.1-9.7-.1-2.3-.5-3.6-.8-4.5-.4-1.1-1-1.9-1.8-2.8-.8-.8-1.6-1.4-2.8-1.8-.8-.3-2.1-.7-4.5-.8-2.5-.1-3.3-.1-9.7-.1zm0 7.4c6.8 0 12.3 5.5 12.3 12.3 0 6.8-5.5 12.3-12.3 12.3-6.8 0-12.3-5.5-12.3-12.3 0-6.8 5.5-12.3 12.3-12.3zM36 44c4.4 0 8-3.6 8-8s-3.6-8-8-8-8 3.6-8 8 3.6 8 8 8zm15.7-20.8c0 1.6-1.3 2.9-2.9 2.9-1.6 0-2.9-1.3-2.9-2.9s1.3-2.9 2.9-2.9c1.6 0 2.9 1.3 2.9 2.9z"/>
    </defs>
    <clipPath id="f">
      <use xlink:href="#e" overflow="visible"/>
    </clipPath>
    <clipPath id="h" clip-path="url(#f)">
      <use xlink:href="#g" overflow="visible"/>
    </clipPath>
    <path clip-path="url(#h)" fill="#fff" d="M7 7h58v58H7z"/>
  </g>
</svg>