<?xml version="1.0" encoding="utf-8"?><svg xmlns="http://www.w3.org/2000/svg" viewBox="0 0 34.93 47"><defs><style>.cls-1{fill:#1ca3c2}</style></defs><g id="Group_2" data-name="Group 2" transform="translate(-.03)"><path id="Path_185" data-name="Path 185" class="cls-1" d="M9.2 27l-1.4-.4 3-10c1-2.8 2.8-3 5.7-3.4h.3v-1.4a4.614 4.614 0 0 1-2-3.9v-3A4.621 4.621 0 0 1 19.6.1v1.5a3.149 3.149 0 0 0-3.3 3.3v3a2.972 2.972 0 0 0 1.6 2.8.842.842 0 0 1 .4.7v2.5a.669.669 0 0 1-.6.7l-.9.1c-3 .4-3.8.6-4.5 2.4z"/><path id="Rectangle_128" data-name="Rectangle 128" class="cls-1" transform="rotate(-13.922 86.99 -101.848)" d="M0 0h1.5v11.3H0z"/><path id="Path_186" data-name="Path 186" class="cls-1" d="M24.3 14.9c-.6-.1-1.2-.2-2-.3l-.9-.1a.73.73 0 0 1-.6-.7v-2.5a1.012 1.012 0 0 1 .4-.7 3.078 3.078 0 0 0 1.6-2.8v-3a3.149 3.149 0 0 0-3.3-3.3V0a4.621 4.621 0 0 1 4.8 4.8v3a4.375 4.375 0 0 1-2 3.9v1.4h.3c.8.1 1.5.2 2.2.3z"/><path id="Rectangle_129" data-name="Rectangle 129" class="cls-1" transform="rotate(-39.449 50.41 18.026)" d="M0 0h44v1.5H0z"/><path id="Path_187" data-name="Path 187" class="cls-1" d="M34.1 33.9c-2-1.3-6.5-3.4-14.6-3.4-8.6 0-12.7 2.1-14.5 3.4l-.9-1.2c3.2-2.3 8.7-3.6 15.3-3.6 6.3 0 11.8 1.3 15.4 3.6z"/><path id="Rectangle_130" data-name="Rectangle 130" class="cls-1" transform="rotate(-14.035 145.914 -13.913)" d="M0 0h1.5v12.4H0z"/><path id="Rectangle_131" data-name="Rectangle 131" class="cls-1" transform="rotate(-75.983 43.182 6.155)" d="M0 0h12.4v1.5H0z"/><path id="Path_188" data-name="Path 188" class="cls-1" d="M23.2 46.9l-1.5-.3 1.9-9.6a7.359 7.359 0 0 0-4.2-1.5 7.359 7.359 0 0 0-4.2 1.5l1.9 9.6-1.5.3-2-10a.952.952 0 0 1 .2-.7 8.448 8.448 0 0 1 5.5-2.2 8.245 8.245 0 0 1 5.5 2.2.618.618 0 0 1 .2.7z"/></g></svg>