<svg xmlns="http://www.w3.org/2000/svg" xmlns:xlink="http://www.w3.org/1999/xlink" viewBox="0 0 82 82"><defs><style>.cls-1,.cls-2{fill:none;}.cls-2{clip-path:url(#clip-path);clip-rule:evenodd;}.cls-3{clip-path:url(#clip-path-3);}.cls-4{fill:#757575;}.cls-5{clip-path:url(#clip-path-4);}.cls-6{fill:#fff;}</style><clipPath id="clip-path"><rect class="cls-1" x="5" y="5" width="72" height="72"/></clipPath><clipPath id="clip-path-3"><path class="cls-2" d="M13,77H69a8,8,0,0,0,8-8V13a8,8,0,0,0-8-8H13a8,8,0,0,0-8,8V69a8,8,0,0,0,8,8Z"/></clipPath><clipPath id="clip-path-4"><path class="cls-2" d="M23,31.16V51.55a1.94,1.94,0,0,0,1.93,2H56.74a1.94,1.94,0,0,0,1.93-2V31.16A2,2,0,0,0,56.74,29H24.93A1.94,1.94,0,0,0,23,31.16m2.93,1.78a.71.71,0,0,1,.78-.77c.29,0,11.85,7.32,12.55,7.75l1.81,1.13c.57-.39,1.15-.72,1.74-1.12,1.22-.77,12-7.76,12.31-7.76a.7.7,0,0,1,.77.77c0,.52-1,1-1.65,1.43C50.14,36.87,46,39.6,42,42.19c-.24.16-.7.5-1,.45S28.79,35,26.65,33.76c-.32-.19-.72-.36-.72-.82"/></clipPath></defs><title>mail</title><g id="Layer_2" data-name="Layer 2"><g id="Layer_1-2" data-name="Layer 1"><g class="cls-3"><rect class="cls-4" width="82" height="82"/></g><g class="cls-5"><rect class="cls-6" x="18" y="24" width="45.67" height="34.56"/></g></g></g></svg>