<svg id="manual_icon" data-name="manual icon" xmlns="http://www.w3.org/2000/svg" width="42.28" height="64.656" viewBox="0 0 42.28 64.656">
  <metadata><?xpacket begin="﻿" id="W5M0MpCehiHzreSzNTczkc9d"?>
<x:xmpmeta xmlns:x="adobe:ns:meta/" x:xmptk="Adobe XMP Core 5.6-c142 79.160924, 2017/07/13-01:06:39        ">
   <rdf:RDF xmlns:rdf="http://www.w3.org/1999/02/22-rdf-syntax-ns#">
      <rdf:Description rdf:about=""/>
   </rdf:RDF>
</x:xmpmeta>
                                                                                                    
                                                                                                    
                                                                                                    
                                                                                                    
                                                                                                    
                                                                                                    
                                                                                                    
                                                                                                    
                                                                                                    
                                                                                                    
                                                                                                    
                                                                                                    
                                                                                                    
                                                                                                    
                                                                                                    
                                                                                                    
                                                                                                    
                                                                                                    
                                                                                                    
                                                                                                    
                           
<?xpacket end="w"?></metadata>
<defs>
    <style>
      .cls-1 {
        fill: #1ca3c2;
      }

      .cls-1, .cls-2 {
        fill-rule: evenodd;
      }

      .cls-2 {
        fill: #757575;
      }
    </style>
  </defs>
  <path class="cls-1" d="M5070.37,828.218h25.69v25.657h-25.69V828.218Z" transform="translate(-5063.72 -814.063)"/>
  <path id="Rectangle_540_copy" data-name="Rectangle 540 copy" class="cls-1" d="M5069.29,865.641h7.5v12.29l-3.85-1.6-3.65,1.6v-12.29Z" transform="translate(-5063.72 -814.063)"/>
  <path class="cls-2" d="M5094.81,830.1h-24.96v-2.072h24.96V830.1Zm3.22,24.153h-28.18v-2.071h28.18v2.071Zm-3.22-12.076h-19.88v-2.071h19.88v2.071Zm-4.65-4.57h-10.59v-2.072h10.59v2.072Zm4.65,9.14h-19.88v-2.072h19.88v2.072Zm0,16.445v-2.072a4,4,0,1,0,0-8.009h-1.05V814.066h1.05a6.122,6.122,0,0,1,4.33,1.78,6.029,6.029,0,0,1,1.79,4.295h-2.09a3.963,3.963,0,0,0-1.18-2.83,4.014,4.014,0,0,0-1.81-1.04v34.857a6.112,6.112,0,0,1,3.29,1.693,6.05,6.05,0,0,1,0,8.592A6.126,6.126,0,0,1,5094.81,863.193Zm6.12-6.076h-2.09V820.141h2.09v36.976Zm-35.12,10.066h-2.09v-42a6.005,6.005,0,0,1,1.8-4.3,6.087,6.087,0,0,1,4.33-1.779h24.96v2.071h-24.96a4.033,4.033,0,0,0-2.86,1.172,3.974,3.974,0,0,0-1.18,2.833v42Zm5.08-5.041h-2.09v-42h2.09v42Zm-1.05,11.117a6.083,6.083,0,0,1-4.32-1.781,6.027,6.027,0,0,1,0-8.593,6.1,6.1,0,0,1,4.32-1.777h35.13v2.071h-35.13a4.03,4.03,0,0,0-2.85,1.171,3.931,3.931,0,0,0-1.18,2.833,3.974,3.974,0,0,0,1.18,2.831,4.029,4.029,0,0,0,2.85,1.174v2.071Zm36.17,0h-30.27v-2.071h28.18V823.7h-4.03v-2.071h6.12v51.632Zm-37.21,5.465V866.147h7.98v12.575l-3.99-1.465Zm3.99-3.676,1.9,0.7v-7.53h-3.8v7.528Z" transform="translate(-5063.72 -814.063)"/>
</svg>
