<?xml version="1.0" encoding="utf-8"?><svg xmlns="http://www.w3.org/2000/svg" viewBox="0 0 43 42"><path fill="none" stroke="#1ca3c2" stroke-linejoin="round" d="M21.5 16.5v25m-21-33l21-8 21 8v25l-21 8-21-8v-25z"/><path fill="none" stroke="#1ca3c2" stroke-linejoin="round" d="M42.5 8.5l-21 8-21-8m31.2 4.1l-21-8"/><path fill="none" stroke="#1ca3c2" stroke-miterlimit="10" d="M39.4 20.8l-8.8 3-1.8-5.1 8.9-3.1 1.7 5.2zm-4.6 4.4l1.8.5-1.8 6-10.3-3 1.8-6.1 1.3.4"/><path fill="none" stroke="#1ca3c2" stroke-linecap="round" stroke-miterlimit="10" d="M7.5 23.3l-2-2.8-2 1.2m2-.2v5m8-.8l-2-2.8-2 1.2m2-.6v5m-8 1.2l10 4"/></svg>