<?xml version="1.0" encoding="utf-8"?><svg xmlns="http://www.w3.org/2000/svg" width="40" height="31">
  <path fill-rule="evenodd" fill="#1CA3C2" d="M38.735 14.89h-4.334c-.295 1.859-1.884 3.288-3.809 3.288-1.922 0-3.508-1.422-3.809-3.274l-6.784-.014.002-1.233 6.78.014c.29-1.863 1.881-3.297 3.811-3.297 1.924 0 3.512 1.426 3.809 3.283h3.723v-3.493c0-1.02-1.304-2.937-10.035-4.323a.613.613 0 0 1-.325-.162c-2.847-2.725-5.509-3.941-8.631-3.941h-4.835c-2.853 0-6.966 2.792-8.601 3.992a.603.603 0 0 1-.359.118h-2.45a.192.192 0 0 0-.139.058.206.206 0 0 0-.059.147v3.289c0 .095-.022.19-.064.275l-.75 1.514v1.499c0 .566.456 1.027 1.018 1.027h2.709c.297-1.857 1.885-3.283 3.81-3.283 2.135 0 3.871 1.75 3.871 3.902 0 1.39-.743 2.687-1.939 3.382l-.61-1.068a2.683 2.683 0 0 0 1.327-2.314c0-1.472-1.188-2.669-2.649-2.669a2.663 2.663 0 0 0-2.65 2.669c0 .949.508 1.835 1.324 2.312l-.611 1.067c-1.013-.591-1.669-1.62-1.853-2.765H2.894a2.253 2.253 0 0 1-2.24-2.26v-1.644c0-.096.022-.191.064-.276l.751-1.514V6.054a1.433 1.433 0 0 1 .416-1.019c.267-.271.623-.42 1.003-.42H5.14c2.189-1.589 6.137-4.11 9.158-4.11h4.835c3.408 0 6.293 1.281 9.333 4.148 7.421 1.197 10.88 2.95 10.88 5.511v4.11c0 .34-.274.616-.611.616zm-8.143-3.283a2.663 2.663 0 0 0-2.65 2.669 2.663 2.663 0 0 0 2.65 2.669c1.46 0 2.649-1.197 2.649-2.669s-1.189-2.669-2.649-2.669zM8.164 7.312l-.815-.822.864-.872.636.641h15.183l1.521-.611.452 1.145-1.629.655a.606.606 0 0 1-.226.044H8.596a.611.611 0 0 1-.432-.18zm1.247 6.345h1.629v1.233h-1.019v6.527l7.535 7.603 6.467-6.526-7.534-7.604h-2.191v-1.233h2.444a.61.61 0 0 1 .432.181l8.145 8.22a.62.62 0 0 1 0 .872l-7.331 7.398a.607.607 0 0 1-.864 0l-8.145-8.22a.62.62 0 0 1-.179-.436v-7.398c0-.341.273-.617.611-.617z"/>
</svg>