<?xml version="1.0" encoding="utf-8"?><svg xmlns="http://www.w3.org/2000/svg" width="10.75" height="15.75"><path fill-rule="evenodd" stroke="#757575" stroke-width=".5" fill="#757575" d="M9.704 12.563l-2.097-2.68a.222.222 0 0 0-.282-.06l-1.297.706c-.329-.355-.8-.982-1.346-2.059-.553-1.09-.783-1.854-.877-2.336l1.275-.757a.238.238 0 0 0 .105-.27l-.94-3.309a.23.23 0 0 0-.194-.168 4.26 4.26 0 0 0-.459-.025c-1.101 0-1.768.473-2.134.871a2.508 2.508 0 0 0-.539.891l-.001.004c-.009.03-.207.75-.177 1.924.029 1.075.264 2.755 1.226 4.651.962 1.897 2.155 3.033 2.986 3.653.909.676 1.587.9 1.616.909.01.003.249.079.604.079.607 0 1.746-.229 2.554-1.763a.243.243 0 0 0-.023-.261zm-2.531 1.554c-.281 0-.469-.057-.469-.057-.007-.002-.652-.217-1.504-.856-.787-.589-1.916-1.67-2.832-3.476-.916-1.807-1.143-3.403-1.173-4.423-.031-1.077.146-1.758.157-1.801.02-.06.481-1.43 2.24-1.43.085 0 .172.003.261.01l.846 2.977-1.259.748a.24.24 0 0 0-.111.241c.113.727.432 1.615.951 2.638.515 1.016 1.036 1.789 1.548 2.298.07.071.176.086.262.039l1.282-.697 1.882 2.406c-.651 1.139-1.485 1.383-2.081 1.383z"/></svg>