<?xml version="1.0" encoding="utf-8"?><svg xmlns="http://www.w3.org/2000/svg" width="30" height="30"><path fill-rule="evenodd" fill="#1CA3C2" d="M23.778 22.364l-1.415 1.414a.999.999 0 0 1-1.414 0l-6.662-6.663A4.995 4.995 0 0 1 8.929 16a4.997 4.997 0 0 1-1.116-5.359l2.53 2.53a.999.999 0 0 0 1.414 0l1.414-1.414a.999.999 0 0 0 0-1.414l-2.53-2.53A4.997 4.997 0 0 1 16 8.929a4.995 4.995 0 0 1 1.115 5.358l6.663 6.662c.39.391.39 1.024 0 1.415zm-1.415-1.415l-1.414-1.414-1.414 1.414 1.414 1.415a1 1 0 0 0 1.414-1.415zM28.064 10h-6.065l3.836-3.835C23.468 3.259 19.968 1.32 16 1.039V4h-2V1.05C7.068 1.541 1.541 7.068 1.05 14H4v2H1.05C1.541 22.932 7.068 28.458 14 28.949V26h2v2.949c7.263-.514 13-6.555 13-13.949h.999c0 8.284-6.715 15-14.999 15-8.285 0-15-6.716-15-15C0 6.716 6.715 0 15 0c4.653 0 8.795 2.129 11.542 5.457L29.999 2v8h-1.935z"/></svg>