<?xml version="1.0" encoding="utf-8"?><svg xmlns="http://www.w3.org/2000/svg" width="30" height="30"><path fill-rule="evenodd" fill="#1CA3C2" d="M14.999.003C6.715.003 0 6.75 0 15.073c0 7.64 5.663 13.936 12.999 14.921v-1.015C6.218 28.001 1 22.157 1 15.073 1 7.305 7.267 1.008 14.999 1.008S29 7.305 29 15.073c0 5.996-5.001 13.061-9 13.061-2.21 0-4.001-2.804-4.001-5.023v-4.019L19 17.083v-3.014h-1v-3.015h-2.001v3.015H14v-3.015h-2.001v3.015h-1v3.014L14 19.092v4.019c0 3.329 2.686 6.027 6 6.027 5 0 10-7.506 10-14.065C30 6.75 23.284.003 14.999.003z"/></svg>