<?xml version="1.0" encoding="utf-8"?><svg xmlns="http://www.w3.org/2000/svg" width="36" height="36"><path d="M12.3 12.2v6h-.8c-.3 0-.5-.2-.5-.4v-5.2c0-.2.2-.4.5-.4h.8zM36 4L7 33l-1.1-1 3.4-3.4c-2.1-2.3-3.5-5.3-3.8-8.6l1 .2c.3 3 1.6 5.6 3.5 7.7l8-8c-2.3-.2-4.1-.4-4.2-.5-.4-.2-1.1 0-1.2-.9v-5.8s-.2-1.7 1.6-1.8c.9-.1 4.2-.4 7.7-.2 1.8.1 3.5.2 5 .4l2.8-2.8c-2.5-2.2-5.7-3.6-9.3-3.6-4.8 0-8.9 2.4-11.5 6H7.8c2.7-4.2 7.3-7 12.7-7 3.9 0 7.4 1.5 10 3.9L34.9 3 36 4zm-12.9 8.2l-2.5 4.3h.8l1.4-1.4 1.7-2.9h-1.4zm2.1 0l-.7 1.3 1.3-1.3h-.6zM7.9 14.4h.9v-1.2c0-.3.2-.5.5-.5h1.3v4.7H9.3c-.3 0-.5-.2-.5-.5v-.8h-.9v.9H4.8v-3.5h3.1v.9zm-4 .4h.5v.9h-.5v-.9zm-.8 0h.4v.9h-.4v-.9zm-.9 0h.4v.9h-.4v-.9zm-.9 0h.4v.9h-.4v-.9zm-.8 0h.4v.9H.5v-.9zm20 17.7c1.9 0 3.7-.4 5.4-1.1.6.1 1.2.2 1.7.3-2.2 1.2-4.6 1.8-7.1 1.8-3.2 0-6.4-1-9-3l.7-.7c2.4 1.8 5.3 2.7 8.3 2.7zm5.8-15.9l1.2-2 3-3c.4.3.5.5.5 1.8v5.3s-.2 1-1.2.9c-.5 0-4 .5-7.7.5L22 20l3.4-3.4h.9zm-4.7 3.8h.2l.4 5.2h-1.7s-.1.1 0-2.2c0-.6-.1-1.2-.3-1.7.1.1 1.4-1.3 1.4-1.3zm1.4 7.2c-.2-1.4-.7-7.2-.7-7.2l3.9-.2 3-.2 2.1 8.6s.5.9-.9.9h-5.8s-1.4-.4-1.6-1.9zm9.5-18.1c3.9 5.2 4 12.2.3 17.5l-.5-1c3.1-4.9 2.9-11.1-.5-15.8 0 .1.7-.7.7-.7z" fill="#1ca3c2"/></svg>
