<?xml version="1.0" encoding="utf-8"?><svg xmlns="http://www.w3.org/2000/svg" width="46" height="39"><path stroke="#1CA3C2" fill="none" d="M39.809 28.477H6.038a2.07 2.07 0 0 1-2.068-2.07V6.396a2.07 2.07 0 0 1 2.068-2.07h33.771a2.07 2.07 0 0 1 2.068 2.07v20.011a2.07 2.07 0 0 1-2.068 2.07zM22.263 10.546c0-.279-.089-.523-.264-.722a.954.954 0 0 0-.744-.322c-.3 0-.559.109-.748.315a1.05 1.05 0 0 0-.278.729v4.176h-6.118v-4.176c0-.281-.101-.534-.292-.734a.992.992 0 0 0-.734-.31.997.997 0 0 0-.734.31 1.04 1.04 0 0 0-.291.734v11.746c0 .301.106.556.307.739.195.18.437.271.718.271.281 0 .523-.091.719-.271a.967.967 0 0 0 .307-.739v-5.517h6.118v5.517c0 .302.099.549.294.736.19.182.436.274.732.274.298 0 .543-.095.729-.28.185-.186.279-.432.279-.73V10.546zm11.524 4.055c0-.704-.135-1.371-.401-1.986a5.16 5.16 0 0 0-2.719-2.712 5.004 5.004 0 0 0-1.99-.401h-3.546a.954.954 0 0 0-.744.322 1.059 1.059 0 0 0-.265.722v11.746c0 .298.094.544.28.73.185.185.431.28.729.28h3.546a5 5 0 0 0 1.99-.401 5.262 5.262 0 0 0 1.623-1.087 5.078 5.078 0 0 0 1.097-1.619 4.99 4.99 0 0 0 .4-1.975v-3.619zm-2.948 5.763a2.904 2.904 0 0 1-.969.648 3.089 3.089 0 0 1-1.193.236h-2.538v-9.692h2.538c.405 0 .796.076 1.16.227.359.149.683.377.974.689.303.293.535.625.691.989.155.362.234.746.234 1.14v3.619c0 .416-.081.81-.241 1.171a3.263 3.263 0 0 1-.656.973zM16.721 32.616h2.067v-2.069h8.271v2.069h2.067a2.07 2.07 0 0 1 2.068 2.07H14.653a2.07 2.07 0 0 1 2.068-2.07z"/></svg>