<?xml version="1.0" encoding="utf-8"?><svg xmlns="http://www.w3.org/2000/svg" width="39" height="39"><path stroke="#1CA3C2" fill="none" d="M24.389 34.409a.687.687 0 0 1-.74-.215l-8.221-9.746a.69.69 0 0 1 .206-1.056l17.503-9.211a.693.693 0 0 1 .976.386c.557 1.6.863 3.32.863 5.111 0 6.853-4.435 12.668-10.587 14.731zm7.88-22.111l-10.716 5.639a.69.69 0 0 1-.796-.11l-10.293-9.79a.693.693 0 0 1 .077-1.067 15.422 15.422 0 0 1 8.918-2.826c5.491 0 10.312 2.857 13.069 7.165.219.342.101.8-.259.989zM18.33 19.633l-5.938 3.125a.691.691 0 0 0-.206 1.057l8.632 10.234a.692.692 0 0 1-.488 1.137c-.288.017-.578.026-.871.026-8.569 0-15.516-6.955-15.516-15.534 0-3.946 1.473-7.546 3.895-10.287a.693.693 0 0 1 .997-.047l9.649 9.178a.69.69 0 0 1-.154 1.111z"/></svg>