<?xml version="1.0" encoding="utf-8"?><svg xmlns="http://www.w3.org/2000/svg" width="30" height="30"><path fill-rule="evenodd" fill="#1CA3C2" d="M29 10.999V12l-1.001 1v3L27 17v3h-1v-1l-1-1h1v-1l1-1v-1l.999-3v-2H30v.999h-1zM25 18zm-1-3l-.5-1-.5 1v2l-1 1v-3l1-2v-2.001h1V13l1 2v3l-1-1v-2zm-2 3zm-1.001 2h-1v-3l-1-2v-2l-1-1v-1.001h-1V10h2v2l1 3v1l1 1v1H22l-1.001 1v1zM15 1C9.821 1 5.309 3.819 2.888 8h-1.15C4.254 3.244 9.245 0 15 0c5.754 0 10.745 3.244 13.262 8h-1.15C24.689 3.819 20.179 1 15 1zM2 10.999L6 16l1 2v-8h2v.999H8V19h1v1H7v-1l-4.001-5L2 12v8H-.001v-1H1v-8.001H-.001V10H2v.999zM15.999 18v2H10v-1h1v-8.001h-1V10h5.999v2H15v-1.001h-3V14h3v1h-3v4h3v-1h.999zM15 29c5.179 0 9.689-2.82 12.112-7h1.15c-2.517 4.755-7.508 8-13.262 8-5.755 0-10.746-3.245-13.262-8h1.15C5.309 26.18 9.821 29 15 29z"/></svg>