<?xml version="1.0" encoding="utf-8"?><svg xmlns="http://www.w3.org/2000/svg" width="30" height="30"><path fill-rule="evenodd" fill="#1CA3C2" d="M15 1C9.821 1 5.309 3.819 2.888 8h-1.15C4.253 3.244 9.245 0 15 0c5.754 0 10.746 3.244 13.261 8h-1.15C24.689 3.819 20.179 1 15 1zM4.5 10A2.5 2.5 0 0 1 7 12.5c0 .698-.288 1.327-.749 1.781A2.993 2.993 0 0 1 7.999 17 3 3 0 0 1 5 20H-.001V10H4.5zM2 19h3a2 2 0 0 0 0-4H3v-1h1.5a1.5 1.5 0 0 0 0-3.001H2V19zm14-8.001l.999-.999h1v10H16v-6.031L15 15l-1.001 2h-1L12 15l-1-1v6H8.999V10H10l1 .999L12.999 14v1h1v-1L16 10.999zM15 29c5.179 0 9.689-2.82 12.111-7h1.15c-2.515 4.755-7.507 8-13.261 8-5.755 0-10.747-3.245-13.262-8h1.15C5.309 26.18 9.821 29 15 29zm13-9l-1-1-2-3v-1h-1v1l-2.001 3L21 20h-1v-1l-1-9h2l.999 5v2L23 15l1-2h1l1 2 1 2v-2l1-5h1.999L29 19v1h-1z"/></svg>