<?xml version="1.0" encoding="utf-8"?><svg xmlns="http://www.w3.org/2000/svg" width="30" height="30"><path fill-rule="evenodd" fill="#1CA3C2" d="M28 24h-1.001A2 2 0 0 1 25 22v-4a2 2 0 0 1 1.999-2H28a2 2 0 0 1 2 2v4a2 2 0 0 1-2 2zm0-7h-1.001v6H28v-6zm-2-4h.999V7H26V6h3v7h1v1h-4v-1zM15 1a13.922 13.922 0 0 0-8.642 3H4.826C7.501 1.525 11.068 0 15 0c3.931 0 7.499 1.525 10.173 4h-1.531A13.926 13.926 0 0 0 15 1zM5 12a2 2 0 0 1-2 2H2a2 2 0 0 1-2-2V8a2 2 0 0 1 2-2h1a2 2 0 0 1 2 2v4zM3 7H2v6h1V7zm0 9v7h1v1H0v-1h.999v-6H0v-1h3zm8 6a2 2 0 0 1-2 2H7.999a2 2 0 0 1-2-2v-4a2 2 0 0 1 2-2H9a2 2 0 0 1 2 2v4zm-2-5H7.999v6H9v-6zM6.999 7V6h3v7H11v1H6.999v-1h1V7h-1zM13 8a2 2 0 0 1 2-2h1a2 2 0 0 1 1.999 2v4A2 2 0 0 1 16 14h-1a2 2 0 0 1-2-2V8zm2 5h1V7h-1v6zm-2 4v-1h3v7h1v1h-4v-1h.999v-6H13zm9.999-11v7h1v1H20v-1h1V7h-1V6h2.999zm-4 11v-1H22v7h.999v1h-4v-1H20v-6h-1.001zM15 29c3.264 0 6.26-1.127 8.642-3h1.531c-2.674 2.475-6.242 4-10.173 4-3.932 0-7.499-1.525-10.174-4h1.532c2.381 1.873 5.377 3 8.642 3z"/></svg>