<?xml version="1.0" encoding="utf-8"?>
<!-- Generator: Adobe Illustrator 22.1.0, SVG Export Plug-In . SVG Version: 6.00 Build 0)  -->
<svg version="1.1" id="Layer_1" xmlns="http://www.w3.org/2000/svg" xmlns:xlink="http://www.w3.org/1999/xlink" x="0px" y="0px"
	 viewBox="0 0 24 24" style="enable-background:new 0 0 24 24;" xml:space="preserve">
<path d="M14.3,15.4v-0.8L13.8,14l-0.2,0.2c-1.1,1-2.5,1.5-4,1.5c-3.4,0-6.2-2.8-6.2-6.2c0-3.4,2.8-6.2,6.2-6.2s6.2,2.8,6.2,6.2
	c0,1.5-0.5,2.9-1.5,4L14,13.8l0.6,0.6h0.8L20,19l-1,1L14.3,15.4z M9.5,4.7c-2.7,0-4.8,2.2-4.8,4.8s2.2,4.8,4.8,4.8s4.8-2.2,4.8-4.8
	S12.2,4.7,9.5,4.7z"/>
</svg>
