<?xml version="1.0" encoding="utf-8"?><svg xmlns="http://www.w3.org/2000/svg" width="24" height="24"><path fill="#FFF" fill-rule="evenodd" d="M11.988 23.999C5.364 23.999 0 18.623 0 11.999s5.364-12 11.988-12c6.635 0 12.012 5.376 12.012 12s-5.377 12-12.012 12zm.011-21.6c-5.304 0-9.6 4.297-9.6 9.6 0 5.304 4.296 9.6 9.6 9.6 5.305 0 9.601-4.296 9.601-9.6 0-5.303-4.296-9.6-9.601-9.6zM8.4 13.199c0-1.332 1.079-2.4 2.4-2.4h2.4v-2.4H8.4v-2.4h4.8c1.319 0 2.4 1.069 2.4 2.4v2.4c0 1.332-1.081 2.4-2.4 2.4h-2.4v2.4h4.8v2.4H8.4v-4.8z"/></svg>