<?xml version="1.0" encoding="utf-8"?><svg xmlns="http://www.w3.org/2000/svg" width="24" height="24"><path fill="#FFF" fill-rule="evenodd" d="M11.987 23.999C5.364 23.999 0 18.623 0 12 0 5.375 5.364-.001 11.987-.001c6.636 0 12.012 5.376 12.012 12.001 0 6.623-5.376 11.999-12.012 11.999zm.012-21.6c-5.304 0-9.6 4.296-9.6 9.601 0 5.303 4.296 9.599 9.6 9.599 5.305 0 9.601-4.296 9.601-9.599 0-5.305-4.296-9.601-9.601-9.601zm1.201 15.6H8.401v-2.4H13.2v-2.4h-2.399v-2.4H13.2v-2.4H8.401v-2.4H13.2c1.319 0 2.4 1.068 2.4 2.4v1.8c0 .996-.804 1.801-1.8 1.801.996 0 1.8.803 1.8 1.799v1.8c0 1.332-1.081 2.4-2.4 2.4z"/></svg>