<?xml version="1.0" encoding="utf-8"?><svg xmlns="http://www.w3.org/2000/svg" viewBox="0 0 40.3 44"><g fill="none" stroke="#1ca3c2" stroke-miterlimit="10"><path d="M25.1 34.5c0 1.1-.9 2-2 2h-2c-1.1 0-2-.9-2-2s.9-2 2-2h2c1.1 0 2 .9 2 2zM36.1 15.5c1.1 0 2 .9 2 2v4c0 1.1-.9 2-2 2h-2M7.1 15.5c-1.1 0-2 .9-2 2v4c0 1.1.9 2 2 2h2M13.1 31.9v5.4c0 1.3-.8 2.4-2.1 2.8L.1 43.5M28.1 36.5v1c0 1.3.8 2.3 2 2.7l10 3.3M34.1 16.5l-2.3-1.9c-1.1-.7-2.4-1.1-3.7-1.1H19c-3.8 0-5.8-4-5.8-4"/><path d="M16.3 34.3c-4-1.1-7.2-5.5-7.2-8.8v-15c0-5.5 4.5-10 10-10h5c5.5 0 10 4.5 10 10v15c0 3.7-4.2 9-9 9"/></g></svg>