<svg xmlns="http://www.w3.org/2000/svg" xmlns:xlink="http://www.w3.org/1999/xlink" viewBox="0 0 82 82"><defs><style>.cls-1,.cls-2{fill:none;}.cls-2{clip-path:url(#clip-path);clip-rule:evenodd;}.cls-3{clip-path:url(#clip-path-3);}.cls-4{fill:#757575;}.cls-5{clip-path:url(#clip-path-4);}.cls-6{fill:#fff;}</style><clipPath id="clip-path"><rect class="cls-1" x="5" y="5" width="72" height="72"/></clipPath><clipPath id="clip-path-3"><path class="cls-2" d="M13,77H69a8,8,0,0,0,8-8V13a8,8,0,0,0-8-8H13a8,8,0,0,0-8,8V69a8,8,0,0,0,8,8Z"/></clipPath><clipPath id="clip-path-4"><path class="cls-2" d="M60.09,30.71c.62,13.86-9.71,29.3-28,29.3A27.83,27.83,0,0,1,17,55.58a19.81,19.81,0,0,0,14.58-4.07,9.86,9.86,0,0,1-9.2-6.84,9.91,9.91,0,0,0,4.45-.17,9.85,9.85,0,0,1-7.9-9.78A9.78,9.78,0,0,0,23.39,36,9.86,9.86,0,0,1,20.34,22.8a28,28,0,0,0,20.3,10.29,9.85,9.85,0,0,1,16.78-9,19.63,19.63,0,0,0,6.25-2.39,9.83,9.83,0,0,1-4.33,5.45A19.85,19.85,0,0,0,65,25.62a20,20,0,0,1-4.91,5.09"/></clipPath></defs><title>twitter</title><g id="Layer_2" data-name="Layer 2"><g id="Layer_1-2" data-name="Layer 1"><g class="cls-3"><rect class="cls-4" width="82" height="82"/></g><g class="cls-5"><rect class="cls-6" x="12" y="16" width="58" height="49.01"/></g></g></g></svg>