<?xml version="1.0" encoding="utf-8"?>
<!-- Generator: Adobe Illustrator 21.1.0, SVG Export Plug-In . SVG Version: 6.00 Build 0)  -->
<svg version="1.1" id="Layer_1" xmlns="http://www.w3.org/2000/svg" xmlns:xlink="http://www.w3.org/1999/xlink" x="0px" y="0px"
	 viewBox="0 0 72 72" style="enable-background:new 0 0 72 72;" xml:space="preserve">
<style type="text/css">
	.st0{clip-path:url(#SVGID_3_);}
	.st1{clip-path:url(#SVGID_4_);fill:#757575;}
	.st2{clip-path:url(#SVGID_7_);}
	.st3{clip-path:url(#SVGID_8_);fill:#FFFFFF;}
</style>
<g>
	<g>
		<defs>
			<rect id="SVGID_1_" width="72" height="72"/>
		</defs>
		<defs>
			<path id="SVGID_2_" d="M8,72h56c4.4,0,8-3.6,8-8V8c0-4.4-3.6-8-8-8H8C3.6,0,0,3.6,0,8v56C0,68.4,3.6,72,8,72L8,72z"/>
		</defs>
		<clipPath id="SVGID_3_">
			<use xlink:href="#SVGID_1_"  style="overflow:visible;"/>
		</clipPath>
		<clipPath id="SVGID_4_" class="st0">
			<use xlink:href="#SVGID_2_"  style="overflow:visible;"/>
		</clipPath>
		<rect x="-5" y="-5" class="st1" width="82" height="82"/>
	</g>
	<g>
		<defs>
			<rect id="SVGID_5_" width="72" height="72"/>
		</defs>
		<defs>
			<path id="SVGID_6_" d="M31,42.3l0-13.6l13,6.8L31,42.3L31,42.3z M59.5,26.3c0,0-0.5-3.3-1.9-4.8c-1.8-1.9-3.9-1.9-4.8-2
				C46.1,19,36,19,36,19h0c0,0-10.1,0-16.8,0.5c-0.9,0.1-3,0.1-4.8,2c-1.4,1.5-1.9,4.8-1.9,4.8S12,30.2,12,34.2v3.7
				c0,3.9,0.5,7.8,0.5,7.8s0.5,3.3,1.9,4.8c1.8,1.9,4.2,1.9,5.3,2.1C23.5,52.9,36,53,36,53s10.1,0,16.8-0.5c0.9-0.1,3-0.1,4.8-2
				c1.4-1.5,1.9-4.8,1.9-4.8s0.5-3.9,0.5-7.8v-3.7C60,30.2,59.5,26.3,59.5,26.3L59.5,26.3L59.5,26.3z"/>
		</defs>
		<clipPath id="SVGID_7_">
			<use xlink:href="#SVGID_5_"  style="overflow:visible;"/>
		</clipPath>
		<clipPath id="SVGID_8_" class="st2">
			<use xlink:href="#SVGID_6_"  style="overflow:visible;"/>
		</clipPath>
		<rect x="7" y="14" class="st3" width="58" height="44"/>
	</g>
</g>
</svg>
